<?xml version="1.0" standalone="no"?>
<!DOCTYPE svg PUBLIC "-//W3C//DTD SVG 1.1//EN" "http://www.w3.org/Graphics/SVG/1.1/DTD/svg11.dtd">
<svg t="1511342135520" class="icon" style="color:red" viewBox="0 0 1024 1024" version="1.1" xmlns="http://www.w3.org/2000/svg" p-id="3061" xmlns:xlink="http://www.w3.org/1999/xlink" width="200" height="200">
  <defs>
    <style type="text/css"></style>
  </defs>
  <path d="M899.2 140c-0.8-0.8-20-15.2-50.4-30.4-9.6-4.8-52.8-25.6-120-41.6-16-4-31.2-8-55.2-12-42.4-7.2-96-16-172-19.2H496C420 40 367.2 48.8 325.6 56c-24 4-40 8-55.2 12-67.2 16-110.4 36.8-120 41.6-31.2 15.2-50.4 28.8-50.4 30.4 0 0 0.8 51.2 6.4 112 4 47.2 8.8 88 16 135.2 8.8 66.4 32.8 201.6 57.6 268.8 32.8 87.2 76 135.2 94.4 157.6 69.6 84 175.2 151.2 225.6 175.2 50.4-24 156-90.4 225.6-175.2 18.4-22.4 61.6-70.4 94.4-157.6 25.6-67.2 48.8-202.4 57.6-268.8 6.4-47.2 11.2-88 16-135.2 4.8-60.8 5.6-112 5.6-112z m-40.8 127.2c-4 43.2-8 80.8-14.4 124.8-8 60.8-29.6 185.6-52.8 248-29.6 80-68 124.8-84.8 145.6-61.6 77.6-161.6 144-207.2 167.2-45.6-23.2-144.8-88.8-207.2-168-16.8-20-55.2-64.8-85.6-144.8-23.2-62.4-44.8-187.2-52.8-248-5.6-44-10.4-80.8-14.4-124.8-4.8-56-6.4-112-5.6-112 0.8-0.8 22.4-12.8 46.4-23.2 8.8-4 48-20.8 109.6-35.2 14.4-3.2 28.8-6.4 51.2-10.4 38.4-7.2 87.2-15.2 156-18.4h4.8c69.6 3.2 118.4 11.2 156 18.4 22.4 4 36.8 6.4 51.2 9.6 61.6 15.2 100.8 32 111.2 36 28 12 45.6 22.4 46.4 23.2 0 0.8-2.4 56-8 112z" p-id="3062" fill="#ff9966 "></path>
  <path d="M655.2 206.4c0-22.4-18.4-40.8-40.8-40.8H384c-22.4 0-40.8 18.4-40.8 40.8v63.2h311.2v-63.2zM749.6 296H248c-14.4 0-25.6 12-25.6 25.6s12 25.6 25.6 25.6h501.6c14.4 0 25.6-12 25.6-25.6S764 296 749.6 296zM704 599.2c-17.6-8.8-40-17.6-40-17.6V544c0.8-4 4.8-12.8 8.8-19.2 4-7.2 19.2-30.4 17.6-29.6-0.8 0-60 17.6-60 17.6s-33.6 42.4-34.4 43.2c-2.4 3.2-8 12-14.4 18.4-5.6 5.6-12 12-23.2 18.4-8.8 5.6-20 8-24.8 9.6-4 0-21.6 5.6-36 5.6-7.2 0-25.6-4.8-28-4.8-2.4-0.8-16-4.8-20.8-6.4-4.8-1.6-13.6-7.2-24.8-16.8-11.2-10.4-19.2-23.2-19.2-23.2L368.8 512l-60.8-17.6c0 1.6 3.2 8 9.6 17.6 16.8 24.8 16 32.8 16 32.8v36.8s-8.8 3.2-16.8 6.4-20 8.8-37.6 18.4c-16 9.6-23.2 18.4-23.2 18.4v35.2c7.2 16 51.2 84 78.4 112 37.6 38.4 75.2 68 92.8 80.8 16.8 12 60 39.2 71.2 39.2 20 0 67.2-36 83.2-48s52.8-45.6 62.4-54.4c8.8-8.8 18.4-18.4 25.6-26.4 8-8.8 24-30.4 34.4-45.6 16-23.2 32.8-49.6 36.8-58.4V624c-5.6-6.4-19.2-16-36.8-24.8zM520 747.2l-40.8 17.6v-7.2l32-13.6-32-13.6v-7.2l40.8 16.8v7.2z m0-86.4l-32 13.6 32 13.6v7.2l-40.8-17.6v-7.2l40.8-16.8v7.2z" p-id="3063" fill="#8a8a8a"></path>
  <path d="M364 490.4c17.6 8.8 60 4 76.8-3.2 22.4-10.4 37.6-23.2 46.4-52.8 0.8-3.2 2.4-7.2 3.2-11.2l8-6.4 8 6.4c0.8 4 2.4 8 3.2 11.2 9.6 29.6 24 42.4 46.4 52.8 16.8 8 59.2 12 76.8 3.2 12.8-5.6 27.2-20 36-32.8 12-16 20-31.2 29.6-48 5.6-10.4 9.6-24 9.6-28 0-5.6-1.6-8.8-8-11.2-8-3.2-18.4-3.2-27.2-4-9.6-0.8-32.8-0.8-71.2-0.8-32.8 0-32.8-0.8-52.8 0-14.4 0.8-28 3.2-38.4 16.8h-28c-10.4-14.4-24-16.8-38.4-16.8-19.2-0.8-19.2 0-52.8 0-37.6 0-59.2 0-71.2 0.8-8 0.8-18.4 1.6-26.4 4.8-6.4 2.4-8 5.6-8 11.2 0 4.8 4 17.6 9.6 28 9.6 16.8 17.6 32 29.6 48 12.8 12.8 27.2 26.4 39.2 32z" p-id="3064" fill="#8a8a8a"></path>
</svg>